/* XPM */
static char *result[] = {
/* columns rows colors chars-per-pixel */
"60 60 256 2 ",
"   c black",
".  c #010101",
"X  c #020202",
"o  c gray1",
"O  c #040404",
"+  c gray2",
"@  c #060606",
"#  c #070707",
"$  c gray3",
"%  c #090909",
"&  c gray4",
"*  c #0B0B0B",
"=  c #0C0C0C",
"-  c gray5",
";  c #0E0E0E",
":  c gray6",
">  c #101010",
",  c #111111",
"<  c gray7",
"1  c #131313",
"2  c gray8",
"3  c #151515",
"4  c #161616",
"5  c gray9",
"6  c #181818",
"7  c #191919",
"8  c gray10",
"9  c #1B1B1B",
"0  c gray11",
"q  c #1D1D1D",
"w  c #1E1E1E",
"e  c gray12",
"r  c #202020",
"t  c gray13",
"y  c #222222",
"u  c #232323",
"i  c gray14",
"p  c #252525",
"a  c gray15",
"s  c #272727",
"d  c #282828",
"f  c gray16",
"g  c #2A2A2A",
"h  c gray17",
"j  c #2C2C2C",
"k  c #2D2D2D",
"l  c gray18",
"z  c #2F2F2F",
"x  c gray19",
"c  c #313131",
"v  c #323232",
"b  c gray20",
"n  c #343434",
"m  c #353535",
"M  c gray21",
"N  c #373737",
"B  c gray22",
"V  c #393939",
"C  c #3A3A3A",
"Z  c gray23",
"A  c #3C3C3C",
"S  c gray24",
"D  c #3E3E3E",
"F  c #3F3F3F",
"G  c gray25",
"H  c #414141",
"J  c gray26",
"K  c #434343",
"L  c #444444",
"P  c gray27",
"I  c #464646",
"U  c gray28",
"Y  c #484848",
"T  c #494949",
"R  c gray29",
"E  c #4B4B4B",
"W  c #4C4C4C",
"Q  c gray30",
"!  c #4E4E4E",
"~  c gray31",
"^  c #505050",
"/  c #515151",
"(  c gray32",
")  c #535353",
"_  c gray33",
"`  c #555555",
"'  c #565656",
"]  c gray34",
"[  c #585858",
"{  c gray35",
"}  c #5A5A5A",
"|  c #5B5B5B",
" . c gray36",
".. c #5D5D5D",
"X. c gray37",
"o. c #5F5F5F",
"O. c #606060",
"+. c gray38",
"@. c #626262",
"#. c gray39",
"$. c #646464",
"%. c #656565",
"&. c gray40",
"*. c #676767",
"=. c #686868",
"-. c DimGray",
";. c #6A6A6A",
":. c gray42",
">. c #6C6C6C",
",. c #6D6D6D",
"<. c gray43",
"1. c #6F6F6F",
"2. c gray44",
"3. c #717171",
"4. c #727272",
"5. c gray45",
"6. c #747474",
"7. c gray46",
"8. c #767676",
"9. c #777777",
"0. c gray47",
"q. c #797979",
"w. c gray48",
"e. c #7B7B7B",
"r. c #7C7C7C",
"t. c gray49",
"y. c #7E7E7E",
"u. c gray50",
"i. c #808080",
"p. c #818181",
"a. c gray51",
"s. c #838383",
"d. c #848484",
"f. c gray52",
"g. c #868686",
"h. c gray53",
"j. c #888888",
"k. c #898989",
"l. c gray54",
"z. c #8B8B8B",
"x. c gray55",
"c. c #8D8D8D",
"v. c #8E8E8E",
"b. c gray56",
"n. c #909090",
"m. c gray57",
"M. c #929292",
"N. c #939393",
"B. c gray58",
"V. c #959595",
"C. c gray59",
"Z. c #979797",
"A. c #989898",
"S. c gray60",
"D. c #9A9A9A",
"F. c #9B9B9B",
"G. c gray61",
"H. c #9D9D9D",
"J. c gray62",
"K. c #9F9F9F",
"L. c #A0A0A0",
"P. c gray63",
"I. c #A2A2A2",
"U. c gray64",
"Y. c #A4A4A4",
"T. c #A5A5A5",
"R. c gray65",
"E. c #A7A7A7",
"W. c gray66",
"Q. c #A9A9A9",
"!. c #AAAAAA",
"~. c gray67",
"^. c #ACACAC",
"/. c gray68",
"(. c #AEAEAE",
"). c #AFAFAF",
"_. c gray69",
"`. c #B1B1B1",
"'. c #B2B2B2",
"]. c gray70",
"[. c #B4B4B4",
"{. c gray71",
"}. c #B6B6B6",
"|. c #B7B7B7",
" X c gray72",
".X c #B9B9B9",
"XX c gray73",
"oX c #BBBBBB",
"OX c #BCBCBC",
"+X c gray74",
"@X c gray",
"#X c gray75",
"$X c #C0C0C0",
"%X c #C1C1C1",
"&X c gray76",
"*X c #C3C3C3",
"=X c gray77",
"-X c #C5C5C5",
";X c #C6C6C6",
":X c gray78",
">X c #C8C8C8",
",X c gray79",
"<X c #CACACA",
"1X c #CBCBCB",
"2X c gray80",
"3X c #CDCDCD",
"4X c #EBD5AD",
"5X c #EBD5AD",
"6X c #EBD5AD",
"7X c #EBD5AD",
"8X c #EBD5AD",
"9X c #EBD5AD",
"0X c #EBD5AD",
"qX c #EBD5AD",
"wX c #EBD5AD",
"eX c #EBD5AD",
"rX c #EBD5AD",
"tX c #EBD5AD",
"yX c #EBD5AD",
"uX c #EBD5AD",
"iX c #EBD5AD",
"pX c #EBD5AD",
"aX c #EBD5AD",
"sX c #EBD5AD",
"dX c #EBD5AD",
"fX c #EBD5AD",
"gX c #EBD5AD",
"hX c #EBD5AD",
"jX c #EBD5AD",
"kX c #EBD5AD",
"lX c #EBD5AD",
"zX c #EBD5AD",
"xX c #EBD5AD",
"cX c #EBD5AD",
"vX c #EBD5AD",
"bX c #EBD5AD",
"nX c #EBD5AD",
"mX c #EBD5AD",
"MX c #EBD5AD",
"NX c #EBD5AD",
"BX c #EBD5AD",
"VX c #EBD5AD",
"CX c #EBD5AD",
"ZX c #EBD5AD",
"AX c #EBD5AD",
"SX c #EBD5AD",
"DX c #EBD5AD",
"FX c #EBD5AD",
"GX c #EBD5AD",
"HX c #EBD5AD",
"JX c #EBD5AD",
"KX c #EBD5AD",
"LX c #EBD5AD",
"PX c #EBD5AD",
"IX c #EBD5AD",
"UX c #EBD5AD",
/* pixels */
"UXZXZXPXBXHXHXBXPXAXZXPXBXHXHXBXPXAXZXPXBXHXHXBXPXAXZXPXBXHXHXBXPXAXZXPXBXHXHXBXPXAXZXPXBXHXHXBXPXAXZXPXBXHXHXBXPXAXZXUX",
"ZXFXFXAXGXSXSXGXAXFXFXAXGXSXSXGXAXFXFXAXGXSXSXGXAXFXFXAXGXSXSXGXAXFXFXAXGXSXSXGXAXFXFXAXGXSXSXGXAXFXFXAXGXSXSXGXAXFXFXZX",
"ZXFXFXAXGXSXSXGXAXFXFXAXGXSXSXGXAXFXFXAXGXSXSXGXAXFXFXAXGXSXSXGXAXFXFXAXGXSXSXGXAXFXFXAXGXSXSXGXAXFXFXAXGXSXSXGXAXFXFXZX",
"PXAXAXKXVXGXGXVXKXAXAXKXVXGXGXVXKXAXAXKXVXGXGXVXKXAXAXKXVXGXGXVXKXAXAXKXVXGXGXVXKXAXAXKXVXGXGXVXKXAXAXKXVXGXGXVXKXAXAXPX",
"BXGXGXVXKXAXAXKXVXGXGXVXKXAXAXKXVXGXGXVXKXAXAXKXVXGXGXVXKXAXAXKXVXGXGXVXKXAXAXKXVXGXGXVXKXAXAXKXVXGXGXVXKXAXAXKXVXGXGXBX",
"HXSXSXGXAXFXFXAXGXSXSXGXAXFXFXAXGXSXSXGXAXFXFXAXGXSXSXGXAXFXFXAXGXSXSXGXAXFXFXAXGXSXSXGXAXFXFXAXGXSXSXGXAXFXFXAXGXSXSXHX",
"HXSXSXGXAXFXFXAXGXSXSXGXAXFXFXAXGXSXSXGXAXFXFXAXGXSXSXGXAXFXFXAXGXSXSXGXAXFXFXAXGXSXSXGXAXFXFXAXGXSXSXGXAXFXFXAXGXSXSXHX",
"BXGXGXVXKXAXAXKXVXGXGXVXKXAXAXKXVXGXGXVXKXAXAXKXVXGXGXVXKXAXAXKXVXGXGXVXKXAXAXKXVXGXGXVXKXAXAXKXVXGXGXVXKXAXAXKXVXGXHXBX",
"PXAXAXKXVXGXGXVXKXAXAXKXVXGXGXVXKXAXAXKXVXGXGXVXKXAXAXKXVXGXGXVXKXAXAXKXVXGXGXVXKXAXAXLXCXJXJXAXIXGXGXUXSXKXJXCXJXBXmXCX",
"AXFXFXAXGXSXSXGXAXFXFXAXGXSXSXGXAXFXFXAXGXSXSXGXAXFXFXAXGXSXSXGXAXFXGXDXKXHXJXLXGXGXSXmXcXsX0X;XOX).J.b.f.t.<.} _ R K F ",
"ZXFXFXAXGXSXSXGXAXFXFXAXGXSXSXGXAXFXFXAXGXSXSXGXAXFXFXSXJXHXHXLXSXZXvXtX6XXXI.V.q.*.[ J v j i r s g l S e     & :.d.v.B.",
"PXAXAXKXVXGXGXVXKXAXAXKXVXGXGXVXKXAXAXKXVXHXJXSXUXDXNXvX4XOXU.i.=.Y v a 7 q w z w     $ w./.XX=XrXrXiXxX1.    3 `.%X].{.",
"BXGXGXVXKXAXAXKXVXGXGXVXKXAXAXKXVXHXKXSXLXbXqXOXN.1.R j 5 * X   g { 8.B.[.-X0XzXy.    = n.T.z.t.;._ P C 7       : - & ; ",
"HXSXSXGXAXFXFXAXGXSXSXGXAXFXHXGXGXlX-XA.;.S 9 # X ; h ] W X   O K.sX<X{.D.i.+.! i       . X O $ < r g S ~ +.1.p.V.F.W.OX",
"HXSXSXGXAXFXFXAXGXSXSXHXGXSXtXL.=.b , .   % c -.J.<XsXgXC.@   . y p : O       * 0 n W O.u.M.^.@X3XiXkXMXVXFXHXGXLXJXHXLX",
"BXGXGXVXKXAXAXKXVXHXKXfX/. .r O         R @XsXpX(.u.~ d :         & t G %.g.W.-X0XcXZXCXIXGXGXIXAXJXHXCXKXAXAXKXVXGXGXBX",
"PXAXAXKXVXGXGXVXIXxXS.Z #               J B.( r @         > n +.A.oXtXCXVXLXLXAXPXSXAXKXVXGXGXVXKXAXAXKXVXGXGXVXKXAXAXPX",
"AXFXFXAXGXSXSXJX2XE O         + @.R     .           % A j.%XkXHXGXJXHXSXGXSXSXGXAXFXFXAXGXSXSXGXAXFXFXAXGXSXSXGXAXFXFXZX",
"ZXFXFXAXGXSXFX0Xx             ' jX2.            . G ~.cXKXGXDXGXAXFXFXAXGXSXSXGXAXFXFXAXGXSXSXGXAXFXFXAXGXSXSXGXAXFXFXZX",
"PXAXAXKXVXGXHX;.            + (.^.%             [ gXGXLXVXGXGXVXKXAXAXKXVXGXGXVXKXAXAXKXVXGXGXVXKXAXAXKXVXGXGXVXKXAXAXPX",
"BXGXGXVXKXAXnXH             $ +Xc.            o R.IXGXVXKXAXAXKXVXGXGXVXKXAXAXKXVXGXGXVXKXAXAXKXVXGXGXVXKXAXAXKXVXGXGXBX",
"HXSXSXGXAXFXAX_             . Z.#X=             <.ZXDXGXAXFXFXAXGXSXSXGXAXFXFXAXGXSXSXGXAXFXFXAXGXSXSXGXAXFXFXAXGXSXSXHX",
"HXSXSXGXAXFXJXd.              ^ kXJ             - z.VXJXAXFXFXAXGXSXSXGXAXFXFXAXGXSXSXGXAXFXFXAXGXSXSXGXAXFXFXAXGXSXSXHX",
"BXGXGXVXKXAXFX,X1             ; [.`.,             & 1.iXIXAXAXKXVXGXGXVXKXAXAXKXVXGXGXVXKXAXAXKXVXGXGXVXKXAXAXKXVXGXGXBX",
"PXAXAXKXVXGXHXnX|               I 5XS                 A _.DXJXVXKXAXAXKXVXGXGXVXKXAXAXKXVXGXGXVXKXAXAXKXVXGXGXVXKXAXAXPX",
"AXFXFXAXGXSXSXKX$X5             O d $                   : :.0XJXDXFXFXAXGXSXSXGXAXFXFXAXGXSXSXGXAXFXFXAXGXSXSXGXAXFXFXZX",
"ZXFXFXAXGXSXSXGXSXa.X                   .                   i x.sXJXGXAXGXSXSXGXAXFXFXAXGXSXSXGXAXFXFXAXGXSXSXGXAXFXFXZX",
"PXAXAXKXVXGXGXVXLXxX^                 @ 0.} .                 . M S.zXUXCXGXGXVXKXAXAXKXVXGXGXVXKXAXAXKXVXGXGXVXKXAXAXPX",
"BXGXGXVXKXAXAXKXVXKXeXc               # v.hX,.@                   + K Q.ZXFXSXKXVXGXGXVXKXAXAXKXVXGXGXVXKXAXAXKXVXGXGXBX",
"HXSXSXGXAXFXFXAXGXSXGX;Xa               * u.kXz.1                     & ~ }.VXFXGXSXSXGXAXFXFXAXGXSXSXGXAXFXFXAXGXSXSXHX",
"HXSXSXGXAXFXFXAXGXSXSXKX Xt               O o.uX'.j                       :  .@XFXGXSXGXAXFXFXAXGXSXSXGXAXFXFXAXGXSXSXHX",
"BXGXGXVXKXAXAXKXVXGXGXVXPX[.e                 S %X0X' +                       3 &.6XHXZXKXAXAXKXVXGXGXVXKXAXAXKXVXGXGXBX",
"PXAXAXKXVXGXGXVXKXAXAXKXVXJX.Xu                 w G.;Xr                           w y.aXAXHXGXVXKXAXAXKXVXGXGXVXKXAXAXPX",
"AXFXFXAXGXSXSXGXAXFXFXAXGXSXGX$Xg                 * k O                               l Z.xXHXGXAXFXFXAXGXSXSXGXAXFXFXZX",
"ZXFXFXAXGXSXSXGXAXFXFXAXGXSXSXKX;Xb                       t  .:                         + P }.FXDXFXFXAXGXSXSXGXAXFXFXZX",
"PXAXAXKXVXGXGXVXKXAXAXKXVXGXGXVXIX7XJ                     Q gX~.z                           , ,.sXFXAXKXVXGXGXVXKXAXAXPX",
"BXGXGXVXKXAXAXKXVXGXGXVXKXAXAXKXVXKXsX^                   O I :X0X$.&                           x ~.AXZXKXAXAXKXVXGXGXBX",
"HXSXSXGXAXFXFXAXGXSXSXGXAXFXFXAXGXSXGXzX@.o                   8 x.hXL.d                           - 3.gXFXFXFXAXGXSXSXHX",
"HXSXSXGXAXFXFXAXGXSXSXGXAXFXFXAXGXSXSXJXbX8.@                   O ! 2X8X` O                           L ;XHXFXAXGXSXSXHX",
"BXGXGXVXKXAXAXKXVXGXGXVXKXAXAXKXVXGXGXVXLXBXu.$                     y G.Q.=                             f `.DXKXVXGXGXBX",
"PXAXAXKXVXGXGXVXKXAXAXKXVXGXGXVXKXAXAXKXVXHXSXa.%                     & 5                                 0 ^.ZXKXAXAXPX",
"AXFXFXAXGXSXSXGXAXFXFXAXGXSXSXGXAXFXFXAXGXSXDXSXp.#                           F P                           w oXFXFXFXZX",
"ZXFXFXAXGXSXSXGXAXFXFXAXGXSXSXGXAXFXFXAXGXSXSXHXBX7.X                       X h.fX'                           N yXHXFXZX",
"PXAXAXKXVXGXGXVXKXAXAXKXVXGXGXVXKXAXAXKXVXGXGXVXPXzXT                         , A.dXQ                           p.SXAXPX",
"BXGXGXVXKXAXAXKXVXGXGXVXKXAXAXKXVXGXGXVXKXAXAXKXVXLX$X,                         - Y.9Xt                         j jXHXBX",
"HXSXSXGXAXFXFXAXGXSXSXGXAXFXFXAXGXSXSXGXAXFXFXAXGXDXnXF                           a tX,.                        > *XGXHX",
"HXSXSXGXAXFXFXAXGXSXSXGXAXFXFXAXGXSXSXGXAXFXFXAXGXDXMXL                           & %Xf.                        - +XGXHX",
"BXGXGXVXKXAXAXKXVXGXGXVXKXAXAXKXVXGXGXVXKXAXAXKXVXKXqXq                           7 9X,.                        , 1XKXBX",
"PXAXAXKXVXGXGXVXKXAXAXKXVXGXGXVXKXAXAXKXVXGXGXVXLXCX,.                            i  XH                         f iXSXPX",
"AXFXFXAXGXSXSXGXAXFXFXAXGXSXSXGXAXFXFXAXGXSXSXJXCXc.&                             X 1 #                         ] AXFXZX",
"ZXFXFXAXGXSXSXGXAXFXFXAXGXSXSXGXAXFXFXAXGXDXHXxX7.&                                                           @ T.JXFXZX",
"PXAXAXKXVXGXGXVXKXAXAXKXVXGXGXVXKXAXAXLXAXAX|.G .                             A A                             F nXSXAXPX",
"BXGXGXVXKXAXAXKXVXGXGXVXKXAXAXKXVXJXLXbX@X..:                             O ..gXz.o                         - (.AXGXGXBX",
"HXSXSXGXAXFXFXAXGXSXSXGXAXFXGXFXHXfXY.! >                               e B.zXM.2                           1.BXHXSXSXHX",
"HXSXSXGXAXFXFXAXGXSXSXHXGXHXxX|.0.l +                               ; @.4XwX+.@                           E gXDXGXSXSXHX",
"BXGXGXVXKXAXAXLXZXLXGXpXoX8.M -                                   L XXsXZ.s                             Z 8XFXKXVXGXGXBX",
"PXAXAXKXZXLXKXvXqXP.#.l *                                         :.!.G O                             P 3XKXGXVXKXAXAXPX",
"AXHXKXZXdX|.u.P 9 o                                     + B q     % %                             O ..uXKXSXSXGXAXFXFXZX",
"cX5XD.} h =       . X X X X X X X X X X X X X X X . o b D.sX:.  X . . X X X X X X X X X X X X . 9 l.nXDXGXSXSXGXAXFXFXZX",
"9XJ.f.s.u.f.g.a.h.d.d.h.a.g.g.a.h.d.d.h.a.g.g.a.h.s.c.iXSXaXD.a.h.d.d.h.a.g.g.a.h.d.d.h.a.g.g.s.&XAXSXPXBXHXHXBXPXAXZXUX"
};
