/* XPM */
static char *c3RyYXdfYmFsZS4_[] = {
/* columns rows colors chars-per-pixel */
"60 60 256 2 ",
"   c #BB7203",
".  c #BB7605",
"X  c #B46E0B",
"o  c #946829",
"O  c #BA6E20",
"+  c #C36C06",
"@  c #C66C08",
"#  c #C57304",
"$  c #CA7504",
"%  c #C47902",
"&  c #CA7B03",
"*  c #C87909",
"=  c #D2780A",
"-  c #CC7214",
";  c #D47B17",
":  c #CC6D12",
">  c #C47E23",
",  c #BB8631",
"<  c #CB8408",
"1  c #D5890D",
"2  c #D5940A",
"3  c #DB950D",
"4  c #D69A0A",
"5  c #DB990D",
"6  c #D89606",
"7  c #CD8414",
"8  c #CD8716",
"9  c #D38213",
"0  c #DC8B15",
"q  c #DF8E18",
"w  c #D98515",
"e  c #CD921C",
"r  c #DD9413",
"t  c #DE9B14",
"y  c #DC941A",
"u  c #D79719",
"i  c #E3950C",
"p  c #E4980C",
"a  c #E18D1B",
"s  c #E58A18",
"d  c #E39514",
"f  c #E29C14",
"g  c #EB9A14",
"h  c #E3941C",
"j  c #EA961A",
"k  c #E49B1A",
"l  c #E99B1C",
"z  c #E89513",
"x  c #EA9511",
"c  c #DAA30B",
"v  c #DDA415",
"b  c #DDAB14",
"n  c #DDA51C",
"m  c #DFAA18",
"M  c #E5A80F",
"N  c #E3A415",
"B  c #EAA415",
"V  c #E3AB15",
"C  c #EAAB14",
"Z  c #E5A41B",
"A  c #E9A41C",
"S  c #E5AA1B",
"D  c #EAAB1D",
"F  c #E3B117",
"G  c #EBB315",
"H  c #E4B21B",
"J  c #ECB21C",
"K  c #ECBB1C",
"L  c #EABC14",
"P  c #F2B41D",
"I  c #F2BD1C",
"U  c #F0AA19",
"Y  c #C68A23",
"T  c #CA9827",
"R  c #D79726",
"E  c #C99539",
"W  c #D59B37",
"Q  c #D18D2B",
"!  c #E59223",
"~  c #E49D23",
"^  c #EA9C21",
"/  c #E49528",
"(  c #F19D24",
")  c #E39029",
"_  c #DCA422",
"`  c #D9B72A",
"'  c #D9B835",
"]  c #D2A634",
"[  c #E3A323",
"{  c #EBA522",
"}  c #E5AB22",
"|  c #ECAB22",
" . c #ECA52A",
".. c #EBAC2A",
"X. c #E4A929",
"o. c #F1A424",
"O. c #F2AD25",
"+. c #F5AA2A",
"@. c #E5B421",
"#. c #ECB423",
"$. c #E6BA23",
"%. c #ECBC24",
"&. c #ECB32B",
"*. c #ECBD2A",
"=. c #E4BB2B",
"-. c #F2B424",
";. c #F3BB24",
":. c #F4B32B",
">. c #F3BC2B",
",. c #FAB72B",
"<. c #ECB432",
"1. c #EABE32",
"2. c #E6BB37",
"3. c #F4BD32",
"4. c #F9B834",
"5. c #EDAE34",
"6. c #ECC219",
"7. c #F2C21C",
"8. c #F9CA1B",
"9. c #DFC139",
"0. c #DEC022",
"q. c #EDC125",
"w. c #E5C22B",
"e. c #ECC22A",
"r. c #EBC92A",
"t. c #F3C325",
"y. c #F3C32B",
"u. c #F7C629",
"i. c #EBC236",
"p. c #EBC33A",
"a. c #E7C737",
"s. c #F5C332",
"d. c #F9C433",
"f. c #F4CA35",
"g. c #B68B51",
"h. c #CA9642",
"j. c #D39847",
"k. c #D7A749",
"l. c #DBB949",
"z. c #D9BA55",
"x. c #D3A454",
"c. c #E5B845",
"v. c #E2BA52",
"b. c #D4A865",
"n. c #D9B468",
"m. c #DAB877",
"M. c #E3BB67",
"N. c #E3BC78",
"B. c #DCC34B",
"V. c #DCC558",
"C. c #E4C343",
"Z. c #E5C749",
"A. c #F4C945",
"S. c #E4C655",
"D. c #E9D24D",
"F. c #DDC465",
"G. c #DBC57C",
"H. c #EACE6A",
"J. c #E5C866",
"K. c #EAD26D",
"L. c #E6C679",
"P. c #E9D379",
"I. c #F5DA75",
"U. c #F3D072",
"Y. c #E4BC86",
"T. c #D1B287",
"R. c #DCC68D",
"E. c #E7C687",
"W. c #EBD589",
"Q. c #F2DA89",
"!. c #E6CB99",
"~. c #F5CE91",
"^. c #EBD697",
"/. c #F3D59B",
"(. c #F1CC8A",
"). c #F5E397",
"_. c #F5E78E",
"`. c #EAD6A4",
"'. c #FBD9A8",
"]. c #EADAB7",
"[. c #F7DDB5",
"{. c #FAE5A9",
"}. c #FEF1AA",
"|. c #FBECB4",
" X c #FEEBBC",
".X c #F8E5B4",
"XX c #F6EBB5",
"oX c #EDDED5",
"OX c #FFECC3",
"+X c #F4EBCD",
"@X c #FCEDCC",
"#X c #F7E6C4",
"$X c #FFF4C4",
"%X c #FDF3CC",
"&X c #FFFCCE",
"*X c #EDECDD",
"=X c #E7E4D9",
"-X c #FCECD4",
";X c #F4EDDC",
":X c #FCEEDB",
">X c #F4E8DA",
",X c #E9F3DA",
"<X c #FDF4D4",
"1X c #FFFAD5",
"2X c #FDF4DB",
"3X c #FEFADC",
"4X c #F4F3D6",
"5X c #ECE1C3",
"6X c #E0DFE4",
"7X c #DFEAF5",
"8X c #DFE7E6",
"9X c #E4E6E4",
"0X c #ECE4E4",
"qX c #E5EBE5",
"wX c #ECEDE4",
"eX c #EBE5EB",
"rX c #E4EAEB",
"tX c #ECECEB",
"yX c #E2E6EB",
"uX c #F3ECE4",
"iX c #FCECE4",
"pX c #F3EDEC",
"aX c #FBECEA",
"sX c #F5E7EA",
"dX c #EAF2E4",
"fX c #ECF2ED",
"gX c #E6F5EB",
"hX c #F5F3E4",
"jX c #FCF3E4",
"kX c #FDFAE4",
"lX c #F3F3EC",
"zX c #FDF4EB",
"xX c #F4FAEC",
"cX c #FDFAEC",
"vX c #F4FCE4",
"bX c #ECE6F4",
"nX c #E5ECF2",
"mX c #ECECF4",
"MX c #E6EBFD",
"NX c #ECEDFC",
"BX c #E8E6F9",
"VX c #F2EDF3",
"CX c #F3EDFC",
"ZX c #F7EAF9",
"AX c #ECF3F3",
"SX c #EDF2FD",
"DX c #EEF9FF",
"FX c #E8F4F8",
"GX c #F3F4F3",
"HX c #FBF4F3",
"JX c #F3FAF4",
"KX c #FBFAF4",
"LX c #F3F4FC",
"PX c #FBF4FE",
"IX c #F4FBFD",
"UX c #FCFBFC",
/* pixels */
"DXMXIXMXLXsXzX;XkX-X2X=XKXVXLXMXIXMXDX7XIXMXSXbXLXNXPXbXPXCXCXBXfXdXJXqXJXJXIXmXCXCXPXbXPXZXZXZXCXVXKXtXIXtXxXtXfXfXfXfX",
"FXDXmXLXmXPXpXzXiXzX;XcXsXUXmXNXMXDX7XDXnXIXGXLXLXPXmXLXmXPXNXCXJXIXfXDXyXJXnXmXLXPXZXPXZXPXZXCXGXLXtXPXtXHXtXfXlXfXfXAX",
",XvXwXKXbXPXCXZXCXPXVXUXtXUXtXfXrXxXdXxX*XxXdXhXhXhX*XxXwXKXAXJXnXmXyXLXAXIXAXGXlXJXwXKX,XxXdXxXGXGXtXKXtXKXuXfXfXlXGXKX",
"4X4XkXwXPXCXPXCXCXNXPXbXIXrXfXwXlXhXcX;XkX+X2X4X3X4XkX*XJXrXGXtXUXLXPXCXUXmXKXlXfXqXxX,XvX,XvX,XlXfXKXwXKXwXGXpXHXlXVXpX",
"4X;XkX;XKXtXLXLXLXNXIXnXLXrXGXGXHXaXHXiXjXoX;X+X2X4XcXdXUXfXLXmXPXZXZX0XHXwXHXlXxXdXxX,XgX,XgXvXxXuXGXwXKXtXHXsXlXGXHXGX",
"iXhXuXHXwXPXAXLXFXLXmXUXtXKXlXcX-X@X[. X`./.R.^.`.XX].&X+XkX2XcX>XaX:XHXaXKXhXlXlXGXdXJXgXFXgXgXfXJXtXUXtXUXtXAXVXVXZXPX",
"GXKXtXUXtXJXtXAXfXxXwXcX;XkX+X XQ.I.H.K.v.B.' B.B.S.V.I.P._.).{.@X<X#X@X].:X-X>XiXHXtXUXnXDXFXDXSXKXtXIXmXIXmXCXUXPXGXVX",
"LXmXIXtXJXqXJXfXlX;X2X+X&X|.{.Q.S.2.w.` f.0.r.r.r.w.a.' ' ' B.z.m.b.h.o g.T.OX1X<X;XHXtXIXMXLXSXLXmXPXnXIXmXLXmXNXVXVXGX",
"nXLXAXIXqXDXfXJXuX:X@X{.Q.H.S.a.9.a.a.r.r.q.q.t.t.y.>.&.<.5.k.W X X , , k.n.(.}.$X%X<X;XaXVXPXLXtXGXIXIXGXmXFXLXFXAXGXIX",
"SXNXIX8XUXdXcX2X2XOX^.L.l.' w.q.w.w.=.e.y.u.u.;.;.-.,.4.4. .*   < e ` ' c.l.v.M.F.E./. X%X1X-X2XzXuX=XwXGXUXLXAXSXAXAXrX",
"MXNXAXxX4X3XOX.X^.E.M.l.2.$.L 6.r.r.$.e.y.d.,.:.,.,.+.j 1 = $ & B S -.>.d.*.2.p.Z.l.l.z.F.P._.}.&X<X2X3XhXdXdXfXAXAXfXFX",
"MXLXwXkX].}.P.J.z.l.c.2.i.y.6.L y.y.s.y.;.:.,.4.,.o.s $ + $ x +.-.P G P I t.u.d.r.w.w.' ' a.Z.S.P.^.|. X&X4XkXxXdXfXxXJX",
"PXZXjX`._.V.a.` &.1.1.*.*.%.q.y.q.q.y.s.4.3.4.:.r < % & 3 ( +.P -.;.;.I 8.I 6.6.L 6.r.f.f.r.w.w.Z.z.V.L.).XX+X4XhXlXlXtX",
"ZXiX].m.z.' q.L 7.;.;.>.$.$.e.e.u.t.>.>.4.<.k 7   . 1 k O.,.,.O.,.,.y.;.;.8.7.6.8.8.6.6.7.r.f.f.f.a.B.Z.F.G.R.].4X4XlXtX",
"@X XG.J.] r.K u.G P ;.>.>.e.e.6.t.t.;.| m u < . * e X...#.J I u.3.d.3.*.;.t.u.t.7.t.t.u.y.y.>.*.L 6.u.a.B.F.W.XX@X;XhXHX",
"1X.XQ.c.w.K 7.G 7.;.-.;.*.e.w.q.G -.:.f < . . 8 [ X.X.&.%.;.;.u.*.d.d.y.>.>.q.#.u.u.y.t.>.3.3.y.8.8.u.f.p.D.J.W.&X2XzXpX",
">X<X(.c.:.;.t.K ;.*.;.;.-.$.&.3.4.^ < # < 2 u } } #.*.>.y.u.y.y.q.e.y.y.y.t.q.t.%.*.*.%.*.e.s.u.7.7.s.i.a.a.D.K.}.<XlXNX",
"wX<XE.k...P ;.t.q.%.;.;.-.+...<.w 9 & % 1 t n #.#.%.%.*.q.q.q.q.q.q.*.q.q.%.q.*.*.e.y.y.d.d.d.u.7.%.&.<.i.a.a.J.}.3XHXLX",
"cX2XE.k.X.N C L $.K J | O.| _ R . = 1 0  .| D #.#.#.%.%.%.K K K %.%.%.$.%.%.%.%.>.y.y.d.s.3.>.t.7.F n _ $.w.a.D.).+XsXnX",
"lX@XN.k...M c b H m V Z Z l u 8 % 0 l  .:.&.} D %.#.6.%.q.%.%.$.q.$.6.q.%.*.q.y.d.y.y.y.>.;.%.#.L F n _ @.w.a.B.).%XzXmX",
"*X].b.W | B M V m m n N k k 8 . * k  .+.:.:.#.#.*.%.%.q.q.q.%.q.q.K q.q.e.y.y.s.d.u.>.*.-.%.-.J G G &.&.%.*.a.S.W.+XHXCX",
"kX@Xm.E } B V V m m Z f l h 8 . * k  . .:.3.y.d.y.t.t.t.q.q.%.6.w.q.e.e.y.y.y.y.;.%.| S | | O.J M H ..<.&.%.w.Z.P..XuXeX",
"cX1XN.W Z B C V m D | f j h 8 # < k { { :.>.>.y.t.;.*.%.K %.%.K q.q.e.y.y.e.*.%.#.S m N Z S N N c V ....| #.*.C.P.OXzXHX",
"=X@XY.W k B C V v | A l a ! 7 X < h ~ Z } | D S %.%.K %.K %.%.%.*.e.r.r.*.%.@.H :.#.S V N N p 4 M N  . .| %.t.C.L. XiXHX",
"kX<X(.W ~ U C N m } { o.( ^ 9   < f [ Z { S S V V V H H F H S H ` y.f.y.$.$.@.S D D J A A A { C M B  . .D K q.p.L..XjXaX",
"uX2X~.j.u B N D } } o.o.( ! ; X * h ~ k A S V S V V V V V V V V b $.t.%.@.V V v v V Z A Z B A A N B  . .O.P %.2.J.`.-XaX",
"uX2X~.W u B C P } } o.o.( ! ; . & y l k { A Z S S S V m S S D S c @.y.*.@.#.V v v N S Z A Z A A C S  . .D P L 1.H.'.2XHX",
"pX-XE.E ~ D D D | } { ^ j h ; # $ r k k { | Z S S V N N N Z S S v #.y.y.*.#.@.N S D A A A A A D S A  . .C G K w.J.^.@XiX",
"pX:X!.j.R D Z S Z [ Z l j a 7 # # 0 l k A { A A A S Z Z A A | Z v $.>.>.$.J J S S S | S Z Z Z A D A  .Z B G L w.z.!.5XuX",
"pXkX/.j.R 5 4 S n n k k j ! 7 # # d ^ l  .o.A A | A Z A | { A Z N #.,.,.#.| | S v N Z Z t t t v S A R R f C L *.S.^.-XcX",
"AXjX/.x.R 2 6 m n n Z l ^ a * * # a ^ ^ o.{ l A A A Z { { { ^ f 5 D ,.>.-.O.| A N S N Z k v v n S N ~ ~ M C L *.S.^.@XhX",
"LXhXR.E e 5 3 v _ } } A l h 7 + $ a ^ l o. .Z A Z Z Z { o. .l t 6 S :.:.-.#.A V } D } } } S { | Z Z { | D P I w.S.Q.@XhX",
"AX*XR.E u B i z k R _ @.n k a $ = w ^ { A A A A B l Z { { { d d 5 H ;.;.-.-.| N N Z S S A D N v r l } m D H D ;.C.P.<XKX",
"IXkX^.] t g 6 x { X.X.X.Z k s @ # w h l B B B B N Z Z { A Z f 5 4 V -.-.#.#.J V 4 4 t Z A A k t r { Z } #.%.:.d.p.H.+XmX",
"DX4X`.l.k l x j l [ X.@.Z ^ 0 @ # w h l l B B B k Z  .{ Z d t 5 4 V #.J D D D Z t N } | #.A f 5 t Z S } ;.;.:.3.A.U.4XGX",
"nX*X[.z.R B g j h u _ } Z ^ s = # ; h l A B U B N Z { Z k r 3 5 4 S #.D S D D S N N Z S A t 3 2 k  .} m #.J J >.A.I.1XHX",
"AXhX XM.R d z z r u t t y l ! = # 9 h l l B B A A A Z k y 3 5 p 4 S -.J S S S Z N Z A A { Z A Z  .O.S b S J | >.A.K.@XmX",
"IXhXOXL.Q k z i d r u u r y s : + ; h l l B B B Z Z k u r 3 d p 6 S -.| Z V N V } #.| A Z Z { |  .| v 4 V H J >.p.K.@XtX",
"GXuX$XN.E / ^ x d r y r 0 z w $ @ ; a l l f N p k f y r r f d 5 2 S -.D N v N t A S Z t r 3 r t { Z c 4 b H D ,.p.K.%XGX",
"IX*X@XE.E R ~ 0 i r f h s s = @ + ; a h d f f d t r r d h d d 3 2 S -.D N t t t A D { S Z A A | A X.n b H J #.>.p.K.@XGX",
"IXlX3X'.x.Q ~ d d d d h a a w = @ : 9 0 q r 3 3 t t h t d t z 5 5 S -.D t 4 4 2 t t Z |  .B {  .{ Z S m H H -.;.i.F.].pX",
"tX=X:X[.b.Q R d p p h h h ! w = @ - w 0 d d i d d y y d d d d z t | ,.-.S Z f f t t Z A o.| { A Z } @.H F H P >.A.K.#XUX",
"IXlXzX@Xm.E R f p p d h ! h w = @ : ; w q d 3 3 r r d y d h d i 4 A :.:.| Z Z Z 2 6 1 f { { { A | | =.H b F G >.i.H.#XpX",
"DXdXaX-XY.h.T t p p d a ! ! 3 = X : ; w 0 3 3 0 r r y y d d d f 2 N | -.A Z N k 2 < 1 5 k A {  .4.:.#.b c c H >.i.K.@XlX",
"gXqXhX-X!.x.Q t p i d a ! ! a = X : ; ) q d d f r y y d d d d f 5 Z O.:.| Z Z Z t r 3 y l A o.:.4.&.J H F F P >.s.I.%XKX",
"FXJXHXjX'.n.] t 6 i d ! ) / 0 9 : - ; ; 0 r d h d h h f h d d d t N O.:.:.A k Z k t t k k k {  .Z } @.%.q.u.,.3.1.H.#XlX",
"gXAXlX>X[.m.] 4 6 p a ! ) / r 7 @ - ; ; a q d d k h h k k d d d 3 f D O.+.Z N k k t r t k k d t t S #.*.t.u.d.d.a.H.#XHX",
"8XfXGXiX-X'.M.k.R u ) W / R u 9 : - ; s s d j l l l k k h h d y 3 c D :.-.A N N y 2 3 k { { h r N V @.$.$.=.3.A.Z.L.5XUX",
"JXFXGXpXHXiX<X@X'.Y.b.g.W Q W / ; : ; ; s j ( x x x z j h ! ) h 5 c V ;.;.D N c N k l A o.o.+.+.B G y.f.2.l.x.n.{..X=XuX",
"GXfXLXmXLXGXHXaXzX2X[.'.Y.M.E > : : ; ; ; ( x s g g z d a q q y t 5 m :.:.D N N N B B A { o.O.-.;.%.X.' z.F.^.XX<XiXiXlX",
"pXUX6XUX6XUXeXHXuXjX-X1X X|.~.L.j.O X > 8 7 s j t 3 3 p p f g l R y ~ +.:.O.C C V M G G G G I K 2.c.z.J.W.{. X1X2XlXGXKX",
"HXwXKX0XUXrXUXtXlXwXkX+X<X@X%X$X'.g.o > j., 8 R R t t t f p 6 i h h / +.4.-.U D G G K q.q.q.$.' z.M.Q.|. X<X-X*XGXGXGXVX",
"zXsXHX0XUXtXIXfXJXgXJXdXcXwXhX>XkX!.T.!.'.L.b.x.E Q e e u 5 t f i i p D :.P P H q.w.=.' C.B.v.J.^.[.OX<X3XhXlXGXAXNXSXSX",
"aXPX=XUX=XUXrXFXrXgXnXIXnXUXAXLXHXzXcXkX2X2XOX/.N.b.k.W T T R u i 6 p G -.-.#.*.' ' l.V.F.W.)..X@XiXiXzXlXVXLXLXMXSXSXIX",
"HXsXHXsXKXtXJXfXDXIXFXDX7XDXMXDXBXmXLXVXsXaXcX-XkXOX'.(.N.x.h.Y u 4 c b @.$.2.C.l.n.G.^.].-XjXHXuXGXGXGXLXSXNXNXIXSXLXSX",
"HXZXGXpXGXxXAXfXFXgXFX7XIXFXSXMXIXNXSXLXNXBXZXsXaXiX:X<X$X.X/.L.k.T , T ' l.z.J.P.W..X-XzXHXZXZXLXVXmXNXCXLXSXSXSXLXNXmX",
"eXUXeXKX9XUXdXJXtXIXrXUXbXUXBXLXFXIX7XIXMXUXBXPXbXPX0XHX>XcX-X1X X'.E.m.G.E.).}.|.1X+XkX0XUXbXCXtXUXrXUXrXIXnXLXNXPXVXLX",
"CXPXUXyXUXwXxXtXdXlXKXtXUXbXCXPXAXfXIXrXUXNXLXNXCXCXPXbXUXtXpXaXkXkX2X4X2X<X4X1X4X4XkX=XKXVXPXCXVXlXKX9XUXtXLXGXVXUXVXlX",
"LXSXUX9XUXqXlXwXpXuXKX9XPX0XHXHXvX,XxX=XKXqXLXAXSXFXUXyXUXyXGXmXCXCXCXVXLXGXwXlXlXhXUX=XUXtXPXVXhXwXKX=XUX*XHXlXsXKXtXpX",
"rXIXmXIXtXKXtXKXwXcXsXzXaXHXsXcX,X1X,XvXdXxXqXAXrXIXNXIXFXIXnXIXNXLXMXMXBXLXmXUXtXKXpXGXmXKXtXGXwXxXdXxXdXcXwXKXwXHXsXHX"
};
