/* XPM */
static char *dGVsZXNjbw__[] = {
/* columns rows colors chars-per-pixel */
"60 60 247 2 ",
"   c #010202",
".  c #0C0D0C",
"X  c #080A08",
"o  c #160B0B",
"O  c #0D120D",
"+  c #0B1405",
"@  c #12160D",
"#  c #090A15",
"$  c #0D1613",
"%  c #141514",
"&  c #161A1B",
"*  c #1B1D1C",
"=  c #171915",
"-  c #130A18",
";  c #211A19",
":  c #2C1408",
">  c #1B231B",
",  c #25251A",
"<  c #332D13",
"1  c #1A1B22",
"2  c #19162E",
"3  c #231A27",
"4  c #1C2222",
"5  c #172224",
"6  c #102A3B",
"7  c #232524",
"8  c #2A2C2C",
"9  c #272928",
"0  c #36292A",
"q  c #263229",
"w  c #383628",
"e  c #292B35",
"r  c #2B3435",
"t  c #3B3B3C",
"y  c #353636",
"u  c #392E35",
"i  c #523414",
"p  c #662C05",
"a  c #733A0E",
"s  c #443A3A",
"d  c #4C3829",
"f  c #673D20",
"g  c #5B1919",
"h  c #394538",
"j  c #714611",
"k  c #454639",
"l  c #544B31",
"z  c #745728",
"x  c #6A512E",
"c  c #776A30",
"v  c #655916",
"b  c #383B45",
"n  c #2B3546",
"m  c #413D5A",
"M  c #3A4446",
"N  c #384A54",
"B  c #3A4F4E",
"V  c #434443",
"C  c #474A4A",
"Z  c #4A4D53",
"A  c #454A57",
"S  c #4D5254",
"D  c #4A5658",
"F  c #525454",
"G  c #58595A",
"H  c #53504A",
"J  c #6A564F",
"K  c #58625A",
"L  c #52614E",
"P  c #656559",
"I  c #74685A",
"U  c #736F4C",
"Y  c #434A61",
"T  c #495464",
"R  c #585A65",
"E  c #54526B",
"W  c #635B68",
"Q  c #5A6368",
"!  c #596D71",
"~  c #676869",
"^  c #736967",
"/  c #75736A",
"(  c #686876",
")  c #6C7477",
"_  c #77787A",
"`  c #6C706D",
"'  c #913C09",
"]  c #A83E00",
"[  c #984809",
"{  c #995406",
"}  c #854613",
"|  c #8D4D11",
" . c #A95606",
".. c #AF510B",
"X. c #956B14",
"o. c #B86607",
"O. c #BA7607",
"+. c #B87716",
"@. c #A96B0C",
"#. c #885629",
"$. c #9A7327",
"%. c #8F7132",
"&. c #B2732C",
"*. c #CD5603",
"=. c #C76904",
"-. c #D76D08",
";. c #C87705",
":. c #D77903",
">. c #CB7516",
",. c #E77B03",
"<. c #E1770D",
"1. c #C77931",
"2. c #8C734A",
"3. c #897A73",
"4. c #A77344",
"5. c #7E827E",
"6. c #B88403",
"7. c #B38B13",
"8. c #96842F",
"9. c #B18C2E",
"0. c #B9A21E",
"q. c #C88A06",
"w. c #D88604",
"e. c #D79705",
"r. c #D78816",
"t. c #CE9413",
"y. c #E38401",
"u. c #E98804",
"i. c #EA9602",
"p. c #F49C02",
"a. c #F79805",
"s. c #F58D0B",
"d. c #D4A40C",
"f. c #EBA706",
"g. c #FDA502",
"h. c #FBAC02",
"j. c #F6A904",
"k. c #FDB401",
"l. c #FDBD02",
"z. c #F6B705",
"x. c #FBA612",
"c. c #FAB613",
"v. c #E8B110",
"b. c #C89626",
"n. c #D2932F",
"m. c #CEA22B",
"M. c #F1AD2A",
"N. c #E79723",
"B. c #FEC301",
"V. c #F9C704",
"C. c #FDC812",
"Z. c #FFD00A",
"A. c #FBC623",
"S. c #FCD231",
"D. c #F8E635",
"F. c #998B4C",
"G. c #AB8F56",
"H. c #928C76",
"J. c #B39272",
"K. c #AEA351",
"L. c #CC914C",
"P. c #D6AF4E",
"I. c #E9B256",
"U. c #D1B378",
"Y. c #E9B671",
"T. c #CF9678",
"R. c #FAD545",
"E. c #FBD153",
"W. c #FEE849",
"Q. c #ECC86C",
"!. c #797C83",
"~. c #6A7387",
"^. c #897A8C",
"/. c #7B8287",
"(. c #7E8B98",
"). c #86888B",
"_. c #878B93",
"`. c #8C9397",
"'. c #979999",
"]. c #938F8B",
"[. c #A69995",
"{. c #AF9A91",
"}. c #9BA399",
"|. c #A4A599",
" X c #AFAA8F",
".X c #969CA2",
"XX c #939BB0",
"oX c #A59AA7",
"OX c #9CA3A6",
"+X c #8BA7B5",
"@X c #A6A7A8",
"#X c #ABABB4",
"$X c #ABB2B4",
"%X c #B8B8B8",
"&X c #B2B1AD",
"*X c #C5BCB8",
"=X c #C9B7A1",
"-X c #E1BE98",
";X c #B4C1B3",
":X c #F1D193",
">X c #C5C3BD",
",X c #D4CDB3",
"<X c #F9D6A7",
"1X c #FAEAB7",
"2X c #B6B9C7",
"3X c #C2BBC7",
"4X c #BEC2C4",
"5X c #B7C8D6",
"6X c #C3C4C3",
"7X c #CBCCCB",
"8X c #C7C8C8",
"9X c #CBCBD0",
"0X c #D5D5D4",
"qX c #DBDBDC",
"wX c #D6D8D9",
"eX c #D1CFCE",
"rX c #DDE2DE",
"tX c #E6E7DB",
"yX c #F4EAD8",
"uX c #F7EBD4",
"iX c #D4D4E6",
"pX c #DDE2E8",
"aX c #E4E4E4",
"sX c #ECECEC",
"dX c #E9EAE7",
"fX c #F7ECE8",
"gX c #EDF3EB",
"hX c #F3F4EC",
"jX c #FAF6EB",
"kX c #E9E9F2",
"lX c #F6EEF7",
"zX c #EEF3F3",
"xX c #EAF8FA",
"cX c #F4F4F4",
"vX c #FCF5F3",
"bX c #F5FAF4",
"nX c #FCFBF4",
"mX c #F3F5FB",
"MX c #FBF5FC",
"NX c #F5FBFD",
"BX c #FBFBFB",
"VX c #F8F8F9",
"CX c white",
"ZX c #FEFEFE",
"AX c #FDFDFD",
"SX c #FCFCFC",
"DX c #E3CEDF",
/* pixels */
"CXcXVXSXsXVXVXsXCXkXVXCXdXCXkXD Q 9XNXCXcXVXVXsXCXcXsXSXhXVXcXsXAXVXcXVXcXCXcXsXCXVXsXCXlXVXBXhXCXcXVXSXsXVXBXsXCXhXcXCX",
"CXcXcXBXcXVXVXsXCXcXVXSXsXBXwXt 9 OXBXBXsXVXVXdXVXCXCXCXsXVXCXVXBXVXzXSXsXVXCXsXCXcXVXCXsXVXcXsXCXcXcXVXcXVXVXsXCXVXcXBX",
"cXVXVXcXVXVXVXVXcXVXcXcXbXSXeXb 8 OXCXkXVXVXCXCXzX0X7XsXCXCX9X%X0XrXsXVXVXVXsXBXVXsXVXcXcXBXVXMXcXVXVXcXVXVXVXVXcXVXcXcX",
"dXVXVXsXCXsXcXCXsXCXVXsXSXVX0XZ e OXCXhXBXCX6X_ F G C t ].).b ~ ].@X_._ VXcXVXVXdXCXCXsXBXzXhXBXsXVXVXdXCXsXcXCXsXVXVXsX",
"VXcXVXcXVXVXVXVXcXVXVXVXVXbXiXD 8 OXCXsXAX).C _ 4XwXaX~ Q ` R $X`.`.C ~ `.dXCXaXqXCXsXcXAXVXVXSXVXcXVXcXVXcXVXVXVXcXVXVX",
"CXcXsXCXsXVXVXdXCXkXkXCXdXCXdXG 8 `.BXCX&XC %XdXdXdXBX$X~ _ Q '.%X).F dX_ G 8XrX'.cXcXCXsXBXVXdXCXsXcXCXsXVXBXdXCXsXsXCX",
"VXVXcXBXsXVXVXcXCXVXcXCXdXSXpXD 8 .XCXBX'.%XqXwXdXdXVX7XG %X@X/.) Q _.dX%X> @X6X9 6XCXCXsXVXBXlXBXcXcXSXzXVXVXzXSXVXVXCX",
"sXVXBXsXCXcXzXCXsXVXBXhXSXVX0XZ 9 OXCXsX@X*X9X0XaXaXkXaXQ @X9XwX9X0X7XwX6XC qXwX9 8XCXdXCXcXcXSXsXBXMXsXSXvXzXCXsXVXVXsX",
"sXVXVXsXCXcXcXCXsXVXCXsXCXBX8Xy * @XNXpX|.>X8X0XqXaXdXkX~ _ 2X6X;X6X2X%X2XG 0XsXZ 4XAXsXSXcXvXBXsXVXCXsXCXzXcXCXsXBXVXsX",
"BXVXcXCXsXBXVXcXCXsXcXVXsXVXsX~ C %XCXzX|.>X7XeXqXaXaXlX_ ~ #X$X$X@X@X@XOXD $XVXQ ).CXVXcXVXcXvXCXcXcXVXcXVXVXsXSXVXVXSX",
"CXcXsXCXsXBXVXsXBXcXcXCXcXbXcXbXaXkXVXsX@X>X7XrXwXqXrXzX).S '.`.).`.`.`..XG `.bXqX6XVXCXdXSXVXsXCXcXcXCXsXSXBXdXCXsXcXSX",
"cXcXVXVXVXcXVXVXVXVXVXcXcXAXBXcXqXSXVXtX@X%X4X7X0X0XqXdX@Xb )./.) (.).(..XQ _ zXCXCXcXVXcXVXcXVXcXcXVXcXVXcXVXVXVXcXVXVX",
"sXVXCXdXCXcXcXCXsXcXVXsXCXcXpXV b G eX>X'.6X>X7XeX0X0XtX%Xt /./.) (.(._.`.~ Q zXdXVXVXdXCXcXzXCXsXVXSXsXCXkXcXCXsXVXVXsX",
"cXVXVXcXVXcXVXVXcXVXVXcXVXBXqX> 4 > d I @X$X>X8X8X7XeX0X4XM ) _ ) _.)._.`./.S pXBXVXVXcXVXVXcXVXcXVXVXcXBXcXVXVXcXVXVXsX",
"SXcXcXVXcXVXVXzXSXcXVXCXdXCX0X% . & : I 8XOX;X4X>X8X8X7X6XC ) (._ `.XX`.OX`.C %XnXcXcXCXsXVXVXcXSXcXcXCXhXVXVXcXBXVXcXVX",
"CXcXcXCXdXVXSXsXCXVXsXBXcXVXcXF 9 0 < I eXOX>X4X>X>X>X8X6XD ) '.`.OX$XOX$X/.S &XCXsXVXVXhXCXVXkXCXcXhXCXsXBXVXsXCXcXcXCX",
"cXMXbXcXnXmXjXbXbXhXBXjXvXVXhXCXtXSXoXy ].#X%X;X&X&X*X*X*XQ ) $X$X4X5X2X8X@XL .XmXnXVXmXMXvXhXNXsXSXBXsXBXVXsXCXhXVXMXzX",
"dXSXvXsXCXlXmXCXpXMXCXkXNXbXMXCX@X6XrXH |.&X%X'.@X|.|.#X%XJ ^ .X}.G.=XeX7X2X( ).kXSXjXdXCXzXcXSXsXSXVXsXCXcXcXCXsXvXVXsX",
"hXbXlXzXbXvXNXuXH.=XuX1XuXuXOXeXG C 5.y ~ ).5.P / / ( ( ( ~ ~ R I j 9.F.,X$X~./ vXbXVXvXVXxXmXvXVXVXVXVXVXVXVXVXVXVXVXVX",
"CXzXMXSXkXjXVXE.O.%.v.j.h.N.b Z w = 9 C W G D E F T E Z A M C H #.| t.} =X2X/.) hXwXdXCXkXnXnXsXCXcXsXCXsXVXVXsXBXcXcXSX",
"nXhXvXbXzXbXjXx.t.l p.h.g.j.i   2 X n 6 3 7 e < < < w i < X.f.j.e.j.i.;.P.*X`.P '.#X{.fXlXjXhXcXBXVXcXVXhXVXVXsXVXcXcXVX",
"sXBXnXdXnXNXyXp.;.z =.p.g.k.e.X.6.r.n.z t.e.e.e.7.X.$.X.X.$.e.f.O.k.N.M.N.U.+XD M 7XJ.uXNXhXcXCXsXVXVXcXSXcXVXCXcXVXVXcX",
"kXAXMXlXSXNX1Xd.t.j u.u.x.v.c.c.z.g.f.$.z.z.h.x.$.` 2X3X%X2Xb.h.w.h.+.$.n.m.U.v z %XJ.uXNXsXcXCXzXVXVXhXSXcXVXCXsXcXVXsX",
"AXvXhXSXgXMXfXK.~.w x.C.A.S.R.R.R.M.S.%.$.N.l.f.X. X&X[. X@Xm.w.t.j.<.c.C.c.f.Q.I.8XsXCXzXvXBXzXBXcXVXVXkXVXVXcXVXVXVXVX",
"CXsXzXAXdXNXjXd.n.m.S.S.E.E.D.S.E.Q. X].n u x 9.d ].I ; 3X&Xt.j.i.a.y.g.j.j.M.Y.L.pXjXAXkXNXnXsXSXcXzXCXsXBXVXsXCXzXsXCX",
"VXMXcXbXnXbX1Xc.z.Z.z.V.V.S.R.U.}.`.'.^.).(.~.).(.].P ].[.].N.p.q.t.e.z.j.h.M.E.n.qXnXmXnXSXvXhXcXVXcXBXcXVXcXMXhXMXBXcX",
"dXnXCXdXSXMX-X-.C.D.D.S.C.Z.7.E /./.!.'._ H R ~ {.].}.].'.#X+.w.;.;.u.l.p.i.j.z.r.,XdXwXnXdXfXSXsXVXSXsXBXzXVXnXsXBXBXdX",
"gXnXBXhXSXMXU.] 8.%.$.m.Q.W.H.Z C G F F O   9 t ~ 5X9X|.j j O.;.w.;.u.h.i.,.j.l.a.H.A ~ [.eXwXkXBXcXVXcXCXsXVXVXcXVXcXzX",
"SXcXcXbXwXkX,X2.J Y ( / l 8.]._.~ > q @   > + 8 b @XDXaXY.,.,.-.o.o.;.i.u.u.a.l.p.3.M r H 9XaXwXdXcXcXCXsXCXVXsXCXsXcXCX",
"SXcXNX}.) ^.oXoX2.H.&X>XT , w V ( 9 7 % 1 y > = 9 S @X5X3X#...o. ...*.y.i.p.i.k.j.4.n . 4 ) dXpX0XdXVXVXdXBXBXsXCXsXVXCX",
"dXSX|.X > < = O z [._.%XG 8 H t e h . 5 M C V e $ + o w 4.[  .*.>.s.,.y.,.u.i.z.j.4.4 O # 7 ).lXqXdXVXcXCXsXcXCXcXVXVXcX",
"hXsX> - q = - o x #XXX_.l l l F e q   t ` ` G n - O = , a [ {  .a { o.-.w.u.s.k.c.L.V o &   + *XwXSXSXdXBXVXsXCXsXCXVXsX",
"SX'.  m C r 4 # i 0.7.e.v.V.x e t & , W ) K Q h 7 O X 5 f ' a [ p g g *.w.u.s.h.l.N.~ . 1 % + ; =XBXbXNXVXcXMXxXVXVXVXVX",
"nXC > G R h r & i V.V.V.m.B.c n w = r ) K T G R Z 4 O 8 f ' j | { : g ..r.v.i.j.Z.x.x @ % % > & 0XjXdXBXpXAXcXyXCXcXcXSX",
"qX> k G G G h 1 < z.V.B.b.B.c M n % B ( M E T F y % 7 t H } a } ..p j @.w.h.u.j.A.M.x $ 9 4 5 > ].N.A.:XSXbXbXNXVXcXcXVX",
"'.5 W S F R M 3 , z.l.V.9.V.%.b y > G R %.9.Q S y = O r D f } ' ..&.G.q.k.-.-.c.S.S.j   = - 2 5 [ i.s.:XCXsXhXSXdXCXBXdX",
"` % R E R D b e , z.B.z.t.B.G.M w r ( L v.k.9.E D r * % n i a a ] O.8. .w.j.x.l.C.A.P.F.8.%.8.8.a.x.-.-XAXVXcXnXsXCXMXsX",
"l n ~ 9.9.Q F q , v.c.V.V.D.K.T r , R %.a.a.v.K D k 7 ; 6 d p a [ ;.U.6.&.k.h.k.B.C.C.D.W.D.D.W.E.D.Z.Q.xXlXSXzXCXcXcXSX",
"= N U a.i.2.Y 9 ; 7.d.0.m.K.5.h @ q K b.,.u.h.%.T y 7 & r k p ' } s.M.q.X.u.-.,.=.+.r.;.:.r.6.r.r.e.i.n.yXNXjXsXCXsXzXSX",
"K Y 9.u.p.9.Y r @ C ~.~.^.^.'.K # Z K w.-.i.>.%.N 1 O = w r j | } ,.-.i.O.-.y.u...{ =...| : , w 0 z } [ uXxXfXBXzXVXVXhX",
"tX~.t.,.i.+.Q 8 @ 5.'.]._.^.).C   R U :.-.b.b w G r O O w 0 i p [ u.i.f.+.w.:.O.| o.-.1. .+ + B b f  . .:XxXfXSXdXBXVXsX",
"%XK >.y.%.d ~ m X G !.~ ( ^ ^ u   F K u.<.c G w G Z 1 O 1 ; o i [ a ;.g.X.z A e R G J x 7.A E F F ^ l @.<XNXSXxXVXVXVXVX",
"*XD w.:.G m F q O h W G G F G e X n 3.u.:./ F d S h * = & 5 < : p 7 v e.=.O.{ p Q W f p @.r w * N 3.d &.yXnXCXkXSXsXcXSX",
"pXQ u.;.W l G r % 8 k M m t V 9   B #.y.-.^ W d F 9 * % $ r 8 = 3 r c q.;.<.,.+.N %.*.[ 6.$ O O M ^.] L.NXhXnXzXCXcXVXSX",
"aX/ w.>.R U c e = 9 h t y w y 7 # Q U y.,.I K w D * * * % = 8 m y y l r.e.$.<.o.Y 2...' O.* - = u 3.*.L.SXdXcXSXzXMXVXsX",
"3XG w.>.G U U 6 = 7 y 8 9 0 0 9   T I w.y.2.T w R r . = , O w s e l m $.u.v o.:.B #.o...>.o ) K e / [ 1.CXzXjXCXsXBXVXsX",
"9XD w.,.%.0 C 9 * 9 8 F ^ ~ H 0 : q U r.,.n.m i A C & ; = = . % @ w 8 #.f.v } ,.M J o...O.{.{.k 6 ^ [ n.NXbXvXcXBXBXnXVX",
"bX~.+.u.:.+.A 9 9 9 & ].VXSXjX,XfXoXB N.,.i.:.$.M e 1 8 % 8 '.'.'.'.`.P.g.-X#.-.k J o.&.:XP.y.F.& E ..1.hXjXMXsXCXsXzXCX",
"SXXX$.u.i.n.b 7 4 b 4 5.CXcXcXCXbX7XN b.s.,.g.2.b * 1 > > * pXBXCXnXNX:Xa.1XJ...h H L.-X>.-.=.F.h T ..&.CXjXmXnXVXmXzXcX",
"aX! c i.a.%.e r 9 M 7 4XAXsXzXCXmXoXN %.a.u.f.P M 4 * % y 7 qXCXtXvXNX:Xi.P.&.=.0 ( T...-.w.T.^.P h  .n.SXdXjXSXdXCXCXsX",
"VX/.A q.N.G 7 r y 8 S cXAXVXVXVXnXwXQ k N.k.9.C C 4 & 9 9 H AXbXbXvXBX:Xi.,... .d F @.[ +.=.&.2.g B j F.#XtXxXMXBXBXzX0X",
"BXdXQ G F k = 8 8 * G VXsXBXbXdXAXSX$Xb U 9./ D 8 8 * 9 . %XAXkXBXzXmX1Xh.i.=.| w H :.<.w.s.a.,.i T 3.J.tXNXCXBXaX'.[.qX",
"CXiXV B D 8 u 1 9 r ( CXdXVXVXsXNXnX@XA A Q R b * * 4 % 7 %XCXsXnXVXjXuXa.h.j.u.y H z.c.z.f.8.U 3.~.b.c.vXNX*X~ ` %XcXCX",
"hXaX).C r 8 8 + 9 4 4XVXVXVXcXCXyXAX).S D L S r 9 O O 9 * 6XCXBXkXVXnX<Xc.I.I.:.i H :.@.| Z Q !.U n 9.n.).s k %XVXSXVXsX",
"dXAXtX9 8 , & = % t BXsXSXcXcXBXkXCXNX}.A V n q , O 7 . G VXsXCXfXBXBXdXfXAXzXeXJ s d B Q W H $ A M u u ~ OXVXVXdXVXCXdX",
"MXNX9X].7     X % #XVXMXVXcXVXVXNXfXCX$X& s r @ % O = . 0XCXVXVXBXhXMXBXmXhXMXBX! 9 G S q @   ; %X` `.rXVXSXmXhXVXVXcXCX",
"CXsXVXBX).` ^._ 8XCXsXCXdXVXVXsXCXsXCX%X`.r * O O O   C sXVXBXsXCXzXcXCXdXVXVXdX0X'.        ; @XnXbXSXCXdXVXSXsXCXkXcXCX",
"VXVXcXVXCXCXnXCXCXcXcXCXcXVXCXdXVXBXsXCXAX9 X X X   F sXVXVXVXsXVXcXcXVXcXVXVXcXSXcX[.@X'.@XqXCXVXbXVXVXcXcXVXcXVXVXVXVX",
"dXCXCXdXCXsXsXCXsXVXVXsXCXcXsXCXdXVXCXdXCX0X4X8X%X0XnXcXCXsXVXCXcXVXVXsXCXcXVXSXdXVXCXBXVXVXVXCXsXVXVXsXVXVXcXCXsXVXVXsX",
"cXVXBXsXCXcXVXBXdXVXCXsXVXVXVXCXcXVXVXcXAXVXCXCXVXCXBXdXCXcXsXCXsXVXSXsXSXcXzXCXkXVXVXsXCXcXsXCXsXSXVXsXCXcXhXCXsXSXSXsX"
};
