/* XPM */
static char *dHJlZQ__[] = {
/* columns rows colors chars-per-pixel */
"60 60 176 2 ",
"   c #3D221C",
".  c #EBD5AD",
"X  c #2B1926",
"o  c #2D1A28",
"O  c #371F25",
"+  c #321D2B",
"@  c #321E31",
"#  c #3A2232",
"$  c #3F2439",
"%  c #40241E",
"&  c #452721",
"*  c #4C2B24",
"=  c #462729",
"-  c #4C2B2C",
";  c #522E2D",
":  c #56302F",
">  c #5E342C",
",  c #452732",
"<  c #462830",
"1  c #44273C",
"2  c #452A3C",
"3  c #4A2B3B",
"4  c #522E35",
"5  c #512E39",
"6  c #49303C",
"7  c #543037",
"8  c #5B3335",
"9  c #543038",
"0  c #623732",
"q  c #663931",
"w  c #683A30",
"e  c #3F644A",
"r  c #3E6E4D",
"t  c #3E734E",
"y  c #3F7650",
"u  c #3F7852",
"i  c #424343",
"p  c #444D44",
"a  c #446949",
"s  c #41754E",
"d  c #44794F",
"f  c #407751",
"g  c #427B53",
"h  c #458157",
"j  c #4C8352",
"k  c #4D8857",
"l  c #468459",
"z  c #48875B",
"x  c #47885D",
"c  c #4A8B5D",
"v  c #528750",
"b  c #548B53",
"n  c #598E51",
"m  c #518F5B",
"M  c #4E915F",
"N  c #5B9353",
"B  c #54935C",
"V  c #59975B",
"C  c #57985F",
"Z  c #5B9C5E",
"A  c #679D54",
"S  c #699E54",
"D  c #619F5C",
"F  c #6CA355",
"G  c #61A15E",
"H  c #63A05C",
"J  c #64A25C",
"K  c #65A35D",
"L  c #66A35C",
"P  c #65A25B",
"I  c #68A359",
"U  c #69A459",
"Y  c #6AA559",
"T  c #6BA659",
"R  c #6AA659",
"E  c #68A45A",
"W  c #69A45A",
"Q  c #69A55A",
"!  c #69A55B",
"~  c #6AA55A",
"^  c #6BA65A",
"/  c #6CA659",
"(  c #6DA759",
")  c #6CA759",
"_  c #6CA75A",
"`  c #6AA65A",
"'  c #6DA859",
"]  c #6EA859",
"[  c #6FA858",
"{  c #6FAA59",
"}  c #6DA85A",
"|  c #6EA859",
" . c #70A756",
".. c #71A754",
"X. c #72AB57",
"o. c #72AA57",
"O. c #74AB56",
"+. c #73AC57",
"@. c #77AD55",
"#. c #74AC57",
"$. c #75AD56",
"%. c #76AD56",
"&. c #77AE56",
"*. c #75AD56",
"=. c #79AF54",
"-. c #79AF55",
";. c #78AF55",
":. c #78AE56",
">. c #78AF56",
",. c #79AF55",
"<. c #70A958",
"1. c #71AA58",
"2. c #71AB59",
"3. c #71AA58",
"4. c #79B055",
"5. c #7AB055",
"6. c #7BB055",
"7. c #7BB155",
"8. c #79B056",
"9. c #7CB154",
"0. c #7CB155",
"q. c #7CB254",
"w. c #7DB254",
"e. c #7DB354",
"r. c #7CB255",
"t. c #7DB255",
"y. c #7EB354",
"u. c #7EB454",
"i. c #7BB155",
"p. c #4B8E60",
"a. c #4B8F60",
"s. c #4B8F61",
"d. c #4C8F60",
"f. c #4B8F60",
"g. c #4B9061",
"h. c #4A9063",
"j. c #4C9061",
"k. c #4C9161",
"l. c #4D9161",
"z. c #4D9060",
"x. c #4F9260",
"c. c #4F9361",
"v. c #4C9162",
"b. c #4D9162",
"n. c #4C9163",
"m. c #4C9262",
"M. c #4D9262",
"N. c #4D9362",
"B. c #4C9263",
"V. c #4D9263",
"C. c #4D9363",
"Z. c #4E9362",
"A. c #4E9363",
"S. c #4E9262",
"D. c #4F9461",
"F. c #4E9463",
"G. c #4F9462",
"H. c #4E9564",
"J. c #4D9262",
"K. c #509461",
"L. c #519461",
"P. c #519561",
"I. c #509561",
"U. c #529561",
"Y. c #539661",
"T. c #559760",
"R. c #549760",
"E. c #529561",
"W. c #559860",
"Q. c #559861",
"!. c #569960",
"~. c #559861",
"^. c #589A60",
"/. c #599B60",
"(. c #EBD5AD",
"). c black",
/* pixels */
"(.(.(.(.(.(.(.(.(.(.(.(.(.(.(.(.(.(.(.(.(.(.(.(.(.(.(.(.(.(.(.(.(.(.(.(.(.(.(.(.(.(.(.(.(.(.(.(.(.(.(.(.(.(.(.(.(.(.(.(.",
"(.(.(.(.(.(.(.(.(.(.(.(.(.(.(.(.(.(.(.(.(.(.(.(.(.(.(.(.(.(.(.(.(.(.(.(.(.(.(.(.(.(.(.(.(.(.(.(.(.(.(.(.(.(.(.(.(.(.(.(.",
"(.(.(.(.(.(.(.(.(.(.(.(.(.(.(.(.(.(.(.(.(.(.(.(.(.(.(.(.(.(.(.(.(.(.(.(.(.(.(.(.(.(.(.(.(.(.(.(.(.(.(.(.(.(.(.(.(.(.(.(.",
"(.(.(.(.(.(.(.(.(.(.(.(.(.(.(.(.(.(.(.(.(.(.(.(.g g g g d j j j g g g g (.(.(.(.(.(.(.(.(.(.(.(.(.(.(.(.(.(.(.(.(.(.(.(.",
"(.(.(.(.(.(.(.(.(.(.(.(.(.(.(.(.(.(.(.(.(.(.g g x H.Q.D &.u.9.' Q.m.G.x g g (.(.(.(.(.(.(.(.(.(.(.(.(.(.(.(.(.(.(.(.(.(.",
"(.(.(.(.(.(.(.(.(.(.(.(.(.(.(.(.(.(.(.(.y h m Z /.D <.>.' ' >.<.B A.m.G.A.x h u (.(.(.(.(.(.(.(.(.(.(.(.(.(.(.(.(.(.(.(.",
"(.(.(.(.(.(.(.(.(.(.(.(.(.(.(.(.(.(.g g c Z 2.8.y.9.9.*.I D J J H C G.p.A.A.A.z h g (.(.(.(.(.(.(.(.(.(.(.(.(.(.(.(.(.(.",
"(.(.(.(.(.(.(.(.(.(.(.(.(.(.(.(.(.t g p.K 8.9.8.9.9.=.=.R K J P H Z G.m.M A.A.G.A.g t (.(.(.(.(.(.(.(.(.(.(.(.(.(.(.(.(.",
"(.(.(.(.(.(.(.(.(.(.(.(.(.(.(.(.g h m D o.8.9.8.9.*.R D J J D K P Z B m.A.A.m.l g s t t (.(.(.(.(.(.(.(.(.(.(.(.(.(.(.(.",
"(.(.(.(.(.(.(.(.(.(.(.(.(.(.g h l A.D &.<.D R 8.9.>.<.I D D P P D C A.m.A.m.A.c l g t t t t (.(.(.(.(.(.(.(.(.(.(.(.(.(.",
"(.(.(.(.(.(.(.(.(.(.(.(.(.t g c A.m.Y.C K R K Z ' =.J Z I I D C A.m.m.A.M A.m.G.A.c l g t t t (.(.(.(.(.(.(.(.(.(.(.(.(.",
"(.(.(.(.(.(.(.(.(.(.(.(.(.t g x Q.R J K.K.C J R J Q.Y.A.T.C A.A.A.m.A.G.m.m.p.l g g g y t t t (.(.(.(.(.(.(.(.(.(.(.(.(.",
"(.(.(.(.(.(.(.(.(.(.(.t y l B I &.8.8.o.N g k B K.A.p.A.A.d.A.A.A.A.M l g g u y t t t s t t t t t (.(.(.(.(.(.(.(.(.(.(.",
"(.(.(.(.(.(.(.(.(.(.(.t g x G.Y.Z &.9.8.&.F n g y f g g f g g f u d u h c c p.p.x g y t t t t t t (.(.(.(.(.(.(.(.(.(.(.",
"(.(.(.(.(.(.(.(.(.(.(.t g c C ' =.=.8.8.R C A.B d.p.d.d.c A.c M M M M A.G.G.G.B Y.A.x g t t t t t (.(.(.(.(.(.(.(.(.(.(.",
"(.(.(.(.(.(.(.(.(.t g l B R =.9.' C D o.P Y.Z ' Z A.G.^.' >.=.=.&.&.&.&.&.8.&.o.F v g x c g t t t t t (.(.(.(.(.(.(.(.(.",
"(.(.(.(.(.(.(.(.t l m.B Z <.9.9.9.=._ C G.A.Y.C A.B H X.X.&.&.;.X.&.8.=.&.o.F n g l c g g x l g t t t t (.(.(.(.(.(.(.(.",
"(.(.(.(.(.(.(.(.t l A.H <.2.<.<.*.8.9.8.P Y.Z ' Z A.m.G.G.C R R Z H ' D c h g l c g g c z h g t t t t (.(.(.(.(.(.(.(.(.",
"(.(.(.(.(.(.(.g g x A.A.A.A.A.x B I o.F Z B A.A.A.A.m.m.A.m.m.C R H G.l g l M l g c c l g x l y t t t (.(.(.(.(.(.(.(.(.",
"(.(.(.(.(.(.s h A.Q.C Y.A.A.d.g g l l g h l c A.c c c G.m.A.m.A.m.m.A.A.A.A.A.A.A.A.A.c z g g y t t t (.(.(.(.(.(.(.(.(.",
"(.(.(.(.(.(.s k Z P R P Z Y.A.A.d.l h l l g l l h h l c c A.l x A.A.A.m.A.A.m.A.M m.c l g l h y t t t t s (.(.(.(.(.(.(.",
"(.(.(.(.(.(.s N =._ D H L J Z K.A.A.c h h l g s g l d t h l h h l x c G.m.p.A.A.m.A.m.A.m.l h g g y t t t t (.(.(.(.(.(.",
"(.(.(.(.(.(.s N 8.u.=.R D D J J Z K.A.A.c l g t t t t t t t h l l x p.A.A.m.A.d.A.M m.A.A.A.G.A.c f t t t t (.(.(.(.(.(.",
"(.(.(.(.(.(.s k D <.9.9.=._ J D H P Z K.H.A.x l l l l l l l h h h l p.m.m.p.A.A.m.A.m.A.M l l m.c x g t t t t t (.(.(.(.",
"(.(.(.(.(.(.t y g B G ' 9.u.8.' P Z H R Z A.m.A.m.G.H.G.H.Q.K R A A R R R R R ^.A.A.m.l g t g c c l g f t t t t (.(.(.(.",
"(.(.(.(.s t t t t t g B C b b V K R E Z C A.m.m.G.c l g g g j v v v v v v v j j g g g t d l l g l l g s t t t s t t (.(.",
"(.(.t g c V S F A v t y g l l g l B B g l M m.A.m.m.c x x h g t t t t t t t t y t t d l l h h c l g l x g t t t t t (.(.",
"(.(.t j F 8.8.9.&.N t t f g g t t g u t g m.A.A.m.G.A.m.G.A.c c c l y t t t y g c c x h g z l h g c l g f t t t t t (.(.",
"(.(.t v F =.&.8.=.O.....F C c M c c c A.c G.A.m.A.m.A.A.A.m.A.M M m.c c m.c c c G.A.m.c z g g x l g y t t t t t t t (.(.",
"(.(.t t d k B P &.9.&.D C ^ ^ C G.A.m.A.A.A.M Y.M Y.M G.G.A.m.m.A.m.m.A.A.A.G.m.m.m.G.G.A.A.z g h x l s t f y t t y (.(.",
"(.(.t t t h p.m.Y.P &.8.o.Z Z ^ E B m.B H &.8.&.&.&.8.o.Z G.A.A.m.A.c A.m.A.m.A.A.A.m.m.x g g z l g t f h x g t t t (.(.",
"(.(.t t t t t h c m.Y.E X.&.^ Q.G.A.C ' &.8.9.q.8.8.&.X.X.R B m.A.A.A.m.A.m.A.A.c c x g u z z d t t t t t y t s t t (.(.",
"t t t t t t t t t h x c c c c c c m.m.A.Z ' o.o.o.T C M G.A.m.m.m.m.A.m.A.m.m.l g y g f g f g f g y g f g f y t t t (.(.",
"t t t t t g g g g g g g g g g g l c G.m.A.A.m.A.A.A.A.G.m.m.m.G.G.m.m.A.A.m.m.m.p.A.d.A.A.C C A.m.A.A.m.A.M h t t t t t ",
"t s g g g k C Q.A.x c M H.P.P.H.G.m.A.m.A.A.M m.A.H.A.M x x z z z z z c G.R.Z Z Z Z Z Z G R P B m.A.A.x z l g t t t t t ",
"t g C G Z P R P Z k h h x x l l z m.A.G.A.m.A.m.c z l h y t t t t t h k Z ' 8.2.R R R _ K R.p.x c l g t t t t t t t t t ",
"t j ..u.8.<.H H J ^.m.g t t t t y h l l l h l l u t g l l h h h h x m.Z J ^ G ^.B.B.m.m.p.z g y t t t g h g g t t t t t ",
"t v ..u.9.8.8.<.K T.p.x g f t t t t t t t t t t t t u l l l l l l l h h h h h h l g l h g y y g h l x m.G.A.x h g t t t ",
"t g V ^ 8.9.8.9.=.' K R K k g y t t t t t t t t t t t t t t t t t u h l l l h h l h l l k N V A.Q.P R H Z G.A.p.g t t t ",
"r g c R.Z R 8.9.8.8.9.8.8.X.P c l z l z l l z l z z l l l l l l l c A.G.B.B.H.G K ^.A.m.Q.X.8.' o.8.' K R.A.A.d.g s t t ",
"(.f g l p.Y.Z ' 8.q.9.9.&.P C Y.G.m.H.A.m.G.Z _ ' o.' ' ' P R.B.A.m.A.C _ ' R K Z Y.B K E Z Z Z Z Z Q.A.l g g g f t t y ",
"(.(.(.f g g g g j b C C C R ' <.H Y.m.m.A.m.C C Z C C C C C G.A.m.A.A.B C C C Y.m.m.M C C G.m.A.x g g g g t t t t t (.(.",
"(.(.(.(.(.t t t t g g y g m C C R.G.A.A.m.A.m.m.A.c l g g g c B.A.m.A.A.A.A.m.m.m.A.A.m.c g g u g t t t t t t t (.(.(.(.",
"(.(.(.(.(.(.(.t t t t t t f f f g c M A.m.m.A.c h g t t t t y u g t f f f t y y y y y g g t t t t t t t t t (.(.(.(.(.(.",
"(.(.(.(.(.(.(.(.(.(.(.s t t t t t y f f f s t g s t r r r r r y r t r r r t t t t t t t t t t t t t t t t (.(.(.(.(.(.(.",
"(.(.(.(.(.(.(.(.(.(.(.(.(.(.(.t t t t t t t t r r e i 2 2 2 2 2 2 2 2 2 6 p r y t (.(.(.(.(.(.(.(.(.(.(.(.(.(.(.(.(.(.(.",
"(.(.(.(.(.(.(.(.(.(.(.(.(.(.(.(.(.t t t s a p 6 3 3 3 3 3 2 3 3 2 2 2 2 2 2 (.(.(.(.(.(.(.(.(.(.(.(.(.(.(.(.(.(.(.(.(.(.",
"(.(.(.(.(.(.(.(.(.(.(.(.(.(.(.(.(.(.(.(.(.q 0 w w q w 8 5 3 8 8 3 5 0 8 2 $ (.(.(.(.(.(.(.(.(.(.(.(.(.(.(.(.(.(.(.(.(.(.",
"(.(.(.(.(.(.(.(.(.(.(.(.(.(.(.(.(.(.(.(.(.q q q q q w 0 9 5 0 8 3 4 0 8 2 # (.(.(.(.(.(.(.(.(.(.(.(.(.(.(.(.(.(.(.(.(.(.",
"(.(.(.(.(.(.(.(.(.(.(.(.(.(.(.(.(.(.(.  ; 8 0 q q q q q q w w 8 3 4 0 8 2 2 1 + (.(.(.(.(.(.(.(.(.(.(.(.(.(.(.(.(.(.(.(.",
"(.(.(.(.(.(.(.(.(.(.(.(.(.(.(.(.(.& ; 7 5 3 4 q q q q q q q q 8 3 4 0 8 3 1 1 <   (.(.(.(.(.(.(.(.(.(.(.(.(.(.(.(.(.(.(.",
"(.(.(.(.(.(.(.(.(.(.(.(.(.(.(.(.(.* - # @ + 4 q w 0 8 8 0 w w 8 3 3 9 3 1 1 2 5 8 ; & (.(.(.(.(.(.(.(.(.(.(.(.(.(.(.(.(.",
"(.(.(.(.(.(.(.(.(.(.(.(.(.(.(.(.(.(.(.(.(.* > q w 0 5 3 8 0 8 5 3 1 1 1 1 5 4 , + - * (.(.(.(.(.(.(.(.(.(.(.(.(.(.(.(.(.",
"(.(.(.(.(.(.(.(.(.(.(.(.(.(.(.(.(.(.(.(.* q 0 5 9 5 3 3 5 5 3 2 1 1 3 1 3 3 8 4 * (.(.(.(.(.(.(.(.(.(.(.(.(.(.(.(.(.(.(.",
"(.(.(.(.(.(.(.(.(.(.(.(.(.(.(.(.(.(.(.(.* 0 4 + X X o o o o o o o o + X X $ 1 3 5 O (.(.(.(.(.(.(.(.(.(.(.(.(.(.(.(.(.(.",
"(.(.(.(.(.(.(.(.(.(.(.(.(.(.(.(.(.(.(.(.(.(.(.(.(.(.(.(.(.(.(.(.(.(.(.(.(.(.. X (.(.(.(.(.(.(.(.(.(.(.(.(.(.(.(.(.(.(.(.",
"(.(.(.(.(.(.(.(.(.(.(.(.(.(.(.(.(.(.(.(.(.(.(.(.(.(.(.(.(.(.(.(.(.(.(.(.(.(.(.(.(.(.(.(.(.(.(.(.(.(.(.(.(.(.(.(.(.(.(.(.",
"(.(.(.(.(.(.(.(.(.(.(.(.(.(.(.(.(.(.(.(.(.(.(.(.(.(.(.(.(.(.(.(.(.(.(.(.(.(.(.(.(.(.(.(.(.(.(.(.(.(.(.(.(.(.(.(.(.(.(.(.",
"(.(.(.(.(.(.(.(.(.(.(.(.(.(.(.(.(.(.(.(.(.(.(.(.(.(.(.(.(.(.(.(.(.(.(.(.(.(.(.(.(.(.(.(.(.(.(.(.(.(.(.(.(.(.(.(.(.(.(.(.",
"(.(.(.(.(.(.(.(.(.(.(.(.(.(.(.(.(.(.(.(.(.(.(.(.(.(.(.(.(.(.(.(.(.(.(.(.(.(.(.(.(.(.(.(.(.(.(.(.(.(.(.(.(.(.(.(.(.(.(.(."
};
